<?xml version="1.0" standalone="no"?><!DOCTYPE svg PUBLIC "-//W3C//DTD SVG 1.1//EN" "http://www.w3.org/Graphics/SVG/1.1/DTD/svg11.dtd"><svg class="icon" height="512" viewBox="0 0 1024 1024" version="1.1" xmlns="http://www.w3.org/2000/svg"><path d="M1023.968 296.928l0 367.936-512 0.32 0 61.888-227.808 0 0.032-61.824-284.224 1.216 0-369.536 1023.968 0zM563.936 606.208l0-248.992-228.928 0 0 308.896 112.224 0 0-59.872 116.704 0zM622.336 357.216l0 248.992 113.76 0 0-184 56.448 0 0 184 58.816 0 0-186.048 54.176 0 0 186.048 60.064 0 0-248.992-343.264 0zM278.624 605.632l0-248.448-228.64 0 0 248.992 113.408-1.12 0-184.992 58.304 0 0 185.568 56.928 0zM504.384 421.056l0 121.28-54.912 0 0-121.28 54.912 0z" /></svg>